<svg xmlns="http://www.w3.org/2000/svg" xmlns:xlink="http://www.w3.org/1999/xlink" width="400" zoomAndPan="magnify" viewBox="0 0 300 103.5" height="138" preserveAspectRatio="xMidYMid meet" version="1.0"><defs><g/><clipPath id="4b86ec3228"><path d="M 0.722656 0 L 299.277344 0 L 299.277344 103.003906 L 0.722656 103.003906 Z M 0.722656 0 " clip-rule="nonzero"/></clipPath></defs><g fill="#db4a2b" fill-opacity="1"><g transform="translate(54.248698, 79.490985)"><g><path d="M 32.828125 -46.625 C 34.148438 -46.625 35.328125 -46.460938 36.359375 -46.140625 C 37.398438 -45.828125 37.921875 -45.640625 37.921875 -45.578125 L 37.921875 -31.1875 L 32.40625 -31.1875 C 28.84375 -31.1875 26.269531 -30.265625 24.6875 -28.421875 C 23.101562 -26.585938 22.3125 -23.863281 22.3125 -20.25 L 22.3125 0 L 5.171875 0 L 5.171875 -45.5 L 19.21875 -45.5 L 20.34375 -38.609375 C 21.375 -41.242188 23.007812 -43.238281 25.25 -44.59375 C 27.488281 -45.945312 30.015625 -46.625 32.828125 -46.625 Z M 32.828125 -46.625 "/></g></g></g><g fill="#db4a2b" fill-opacity="1"><g transform="translate(92.509795, 79.490985)"><g><path d="M 27.65625 -46.53125 C 34.613281 -46.53125 40.273438 -45.363281 44.640625 -43.03125 C 49.003906 -40.707031 51.1875 -36.9375 51.1875 -31.71875 L 51.1875 -13.953125 C 51.1875 -12.984375 51.414062 -12.179688 51.875 -11.546875 C 52.332031 -10.910156 53.019531 -10.59375 53.9375 -10.59375 L 57.046875 -10.59375 L 57.046875 -0.6875 C 56.867188 -0.570312 56.421875 -0.382812 55.703125 -0.125 C 54.992188 0.132812 53.976562 0.390625 52.65625 0.640625 C 51.332031 0.898438 49.804688 1.03125 48.078125 1.03125 C 44.742188 1.03125 42 0.53125 39.84375 -0.46875 C 37.695312 -1.476562 36.222656 -2.875 35.421875 -4.65625 C 33.234375 -2.925781 30.789062 -1.546875 28.09375 -0.515625 C 25.394531 0.515625 22.234375 1.03125 18.609375 1.03125 C 7.921875 1.03125 2.578125 -3.21875 2.578125 -11.71875 C 2.578125 -16.144531 3.769531 -19.519531 6.15625 -21.84375 C 8.539062 -24.164062 11.972656 -25.757812 16.453125 -26.625 C 20.941406 -27.488281 26.800781 -27.921875 34.03125 -27.921875 L 34.03125 -30.15625 C 34.03125 -31.9375 33.410156 -33.285156 32.171875 -34.203125 C 30.941406 -35.128906 29.351562 -35.59375 27.40625 -35.59375 C 25.625 -35.59375 24.085938 -35.273438 22.796875 -34.640625 C 21.503906 -34.003906 20.859375 -33 20.859375 -31.625 L 20.859375 -31.28125 L 3.96875 -31.28125 C 3.90625 -31.570312 3.875 -31.972656 3.875 -32.484375 C 3.875 -36.796875 5.925781 -40.210938 10.03125 -42.734375 C 14.144531 -45.265625 20.019531 -46.53125 27.65625 -46.53125 Z M 34.03125 -19.8125 C 29.15625 -19.8125 25.550781 -19.28125 23.21875 -18.21875 C 20.894531 -17.15625 19.734375 -15.734375 19.734375 -13.953125 C 19.734375 -11.085938 21.6875 -9.65625 25.59375 -9.65625 C 27.832031 -9.65625 29.796875 -10.253906 31.484375 -11.453125 C 33.179688 -12.660156 34.03125 -14.15625 34.03125 -15.9375 Z M 34.03125 -19.8125 "/></g></g></g><g fill="#db4a2b" fill-opacity="1"><g transform="translate(149.987603, 79.490985)"><g><path d="M 23.703125 -63.515625 C 24.960938 -63.515625 26.539062 -63.351562 28.4375 -63.03125 C 30.332031 -62.71875 31.851562 -62.359375 33 -61.953125 L 33 -51.875 L 29.046875 -51.875 C 27.203125 -51.875 25.9375 -51.53125 25.25 -50.84375 C 24.5625 -50.15625 24.21875 -48.976562 24.21875 -47.3125 L 24.21875 -45.5 L 33 -45.5 L 33 -33.859375 L 24.21875 -33.859375 L 24.21875 0 L 7.0625 0 L 7.0625 -33.859375 L 0.6875 -33.859375 L 0.6875 -45.5 L 7.0625 -45.5 L 7.0625 -47.390625 C 7.0625 -53.253906 8.5 -57.40625 11.375 -59.84375 C 14.25 -62.289062 18.359375 -63.515625 23.703125 -63.515625 Z M 23.703125 -63.515625 "/></g></g></g><g fill="#db4a2b" fill-opacity="1"><g transform="translate(183.509149, 79.490985)"><g><path d="M 23.703125 -63.515625 C 24.960938 -63.515625 26.539062 -63.351562 28.4375 -63.03125 C 30.332031 -62.71875 31.851562 -62.359375 33 -61.953125 L 33 -51.875 L 29.046875 -51.875 C 27.203125 -51.875 25.9375 -51.53125 25.25 -50.84375 C 24.5625 -50.15625 24.21875 -48.976562 24.21875 -47.3125 L 24.21875 -45.5 L 33 -45.5 L 33 -33.859375 L 24.21875 -33.859375 L 24.21875 0 L 7.0625 0 L 7.0625 -33.859375 L 0.6875 -33.859375 L 0.6875 -45.5 L 7.0625 -45.5 L 7.0625 -47.390625 C 7.0625 -53.253906 8.5 -57.40625 11.375 -59.84375 C 14.25 -62.289062 18.359375 -63.515625 23.703125 -63.515625 Z M 23.703125 -63.515625 "/></g></g></g><g fill="#db4a2b" fill-opacity="1"><g transform="translate(217.030695, 79.490985)"><g><path d="M 5.25 0 L 5.25 -17.140625 L 23.53125 -17.140625 L 23.53125 0 Z M 5.25 0 "/></g></g></g></svg>